<?xml version="1.0" standalone="no"?>
<!DOCTYPE svg PUBLIC "-//W3C//DTD SVG 20010904//EN"
 "http://www.w3.org/TR/2001/REC-SVG-20010904/DTD/svg10.dtd">
<svg version="1.0" xmlns="http://www.w3.org/2000/svg"
 width="144.000000pt" height="144.000000pt" viewBox="0 0 144.000000 144.000000"
 preserveAspectRatio="xMidYMid meet">
<metadata>
Created by potrace 1.11, written by Peter Selinger 2001-2013
</metadata>
<g transform="translate(0.000000,144.000000) scale(0.100000,-0.100000)"
fill="#000000" stroke="none">
<path d="M704 1325 c-7 -18 3 -35 22 -35 8 0 12 -5 9 -11 -4 -6 -14 -8 -24 -4
-11 4 -13 3 -5 -5 13 -13 44 -3 44 16 0 7 -10 19 -22 25 -22 12 -22 12 -3 20
18 7 18 8 2 8 -10 1 -20 -6 -23 -14z"/>
<path d="M844 1318 c-4 -7 -3 -8 4 -4 15 9 15 -4 2 -38 -7 -21 -6 -26 5 -26
13 0 17 10 14 37 0 4 7 10 16 13 14 5 12 8 -9 18 -18 8 -27 8 -32 0z"/>
<path d="M587 1313 c-4 -3 -2 -14 3 -24 7 -13 6 -22 -6 -33 -8 -9 -12 -16 -7
-16 16 0 33 24 33 46 0 23 -13 38 -23 27z"/>
<path d="M527 1304 c-8 -8 13 -64 25 -64 5 0 6 10 2 23 -4 12 -7 28 -7 35 0
13 -10 16 -20 6z"/>
<path d="M425 1231 c14 -28 35 -49 35 -36 0 14 -31 65 -41 65 -5 0 -3 -13 6
-29z"/>
<path d="M966 1244 c-5 -14 9 -54 19 -54 2 0 3 12 2 28 -2 23 2 27 23 27 34 0
40 -37 8 -53 -17 -8 -19 -11 -6 -11 47 -2 64 32 30 62 -23 21 -68 22 -76 1z"/>
<path d="M300 1162 c0 -11 67 -32 75 -24 3 3 -9 12 -26 19 -36 15 -49 16 -49
5z"/>
<path d="M673 1140 c-23 -10 -49 -30 -58 -44 -24 -36 -30 -99 -14 -138 12 -30
39 -67 39 -54 0 3 9 -3 20 -14 29 -29 48 -24 20 5 -17 19 -24 36 -23 66 2 87
104 122 165 57 24 -26 29 -38 24 -62 -6 -27 -5 -29 9 -16 19 20 26 75 13 114
-12 35 -57 88 -69 81 -4 -3 -9 -1 -11 5 -6 19 -73 19 -115 0z"/>
<path d="M1123 1140 c-13 -10 -23 -22 -23 -26 0 -4 9 1 20 11 20 18 20 17 20
-23 0 -23 4 -42 9 -42 10 0 10 84 1 93 -3 3 -15 -3 -27 -13z"/>
<path d="M310 1128 c0 -7 5 -20 10 -28 8 -12 10 -9 10 13 0 15 -4 27 -10 27
-5 0 -10 -6 -10 -12z"/>
<path d="M1180 1095 c-11 -13 -10 -14 4 -9 9 3 16 10 16 15 0 13 -6 11 -20 -6z"/>
<path d="M215 1030 c16 -30 14 -34 -17 -31 -29 3 -28 -15 2 -38 17 -12 30 -19
30 -15 0 4 -8 13 -17 20 -16 12 -15 13 10 14 24 0 26 2 17 19 -15 30 -13 46 5
31 8 -6 19 -8 26 -5 7 5 -4 13 -27 21 -22 8 -40 14 -42 14 -1 0 4 -13 13 -30z"/>
<path d="M1228 1002 c-29 -17 -36 -36 -18 -47 6 -4 9 -1 8 6 -4 16 19 23 25 7
2 -7 3 -5 2 4 -2 9 2 19 8 21 5 1 8 8 6 14 -3 8 -13 7 -31 -5z"/>
<path d="M1305 876 c-38 -17 -75 -55 -54 -57 8 -1 17 -1 20 -1 3 1 27 -17 53
-39 64 -52 97 -52 64 1 -10 15 -10 27 0 55 8 19 10 39 7 45 -9 14 -54 12 -90
-4z"/>
<path d="M335 864 c-49 -7 -115 -20 -145 -30 -30 -9 -61 -19 -69 -20 -7 -1
-18 -7 -24 -13 -6 -6 -19 -11 -29 -11 -10 0 -21 -6 -24 -13 -6 -16 41 -133 53
-129 4 2 7 9 5 15 -2 7 0 9 4 4 4 -4 21 6 38 22 34 32 103 69 182 99 71 26
201 20 282 -13 17 -8 32 -11 32 -7 0 4 4 2 8 -3 15 -21 148 -58 219 -60 80 -3
166 17 204 46 24 19 23 19 -21 1 -46 -19 -117 -22 -178 -8 -28 7 -179 63 -262
98 -14 6 -34 12 -45 14 -115 17 -149 19 -230 8z"/>
<path d="M495 723 c-11 -2 -33 -9 -48 -15 -28 -11 -28 -13 -22 -66 13 -109 75
-224 171 -314 38 -36 115 -92 118 -86 26 51 104 140 212 243 167 158 194 185
194 197 0 10 -54 1 -80 -13 -87 -48 -172 -45 -332 10 -117 40 -174 52 -213 44z"/>
<path d="M160 490 c-8 -14 -8 -26 0 -40 14 -27 18 -25 12 5 -3 17 1 27 12 31
18 7 49 -13 40 -27 -3 -5 0 -9 5 -9 15 0 14 12 -5 38 -19 27 -50 28 -64 2z"/>
<path d="M1222 498 c-7 -7 -12 -18 -12 -25 0 -17 57 -46 65 -33 3 6 -1 13 -9
16 -9 3 -13 10 -10 16 3 5 11 4 20 -3 11 -9 14 -7 14 10 0 11 -6 21 -14 21 -8
0 -20 2 -28 5 -7 3 -19 0 -26 -7z m28 -12 c0 -3 -4 -8 -10 -11 -5 -3 -10 -1
-10 4 0 6 5 11 10 11 6 0 10 -2 10 -4z"/>
<path d="M1176 365 c14 -14 22 -30 19 -35 -9 -15 -41 -12 -55 5 -7 8 -17 12
-22 9 -13 -8 21 -44 42 -44 9 0 25 9 35 20 17 18 17 21 1 45 -9 14 -23 25 -31
25 -9 0 -6 -8 11 -25z"/>
<path d="M265 356 c-35 -10 -37 -13 -17 -18 13 -4 22 -2 22 5 0 6 3 8 6 5 3
-4 1 -15 -5 -27 -7 -12 -7 -22 -1 -26 10 -6 44 50 38 64 -2 5 -21 3 -43 -3z"/>
<path d="M367 250 c-19 -32 -13 -42 9 -13 11 16 13 15 20 -12 11 -47 14 -48
40 -14 29 40 31 48 4 24 -19 -18 -20 -17 -31 13 -14 40 -20 40 -42 2z"/>
<path d="M1020 258 c1 -7 9 -23 20 -36 19 -23 20 -23 42 -7 23 17 23 17 2 12
-16 -3 -26 2 -35 19 -13 26 -29 32 -29 12z"/>
<path d="M925 218 c-33 -17 -45 -39 -35 -58 13 -24 43 -30 65 -14 16 12 15 13
-11 11 -23 -2 -30 2 -32 21 -3 17 2 25 17 29 12 3 21 9 21 14 0 11 0 11 -25
-3z"/>
<path d="M519 184 c-24 -30 20 -71 64 -60 20 5 27 13 27 31 0 41 -64 61 -91
29z m67 -9 c7 -17 -12 -45 -31 -45 -18 0 -27 30 -14 46 15 18 38 18 45 -1z"/>
<path d="M704 172 c-6 -4 -10 -20 -10 -37 1 -25 6 -30 26 -32 14 -1 19 0 13 3
-20 9 -16 34 5 28 9 -3 6 2 -8 10 -24 14 -24 17 -1 20 5 0 12 3 15 6 8 8 -29
10 -40 2z"/>
</g>
</svg>
